HIERARCHY
ROOT Hips
{
  OFFSET 3.13124 94.3669 -3.18751
  CHANNELS  6 Xposition Yposition Zposition Zrotation Xrotation Yrotation
  JOINT LeftUpLeg
  {
    OFFSET 8.64259 1.95398 -2.38835
    CHANNELS 3 Zrotation Xrotation Yrotation
    JOINT LeftLeg
    {
      OFFSET 43.7702 0 0
      CHANNELS 3 Zrotation Xrotation Yrotation
      JOINT LeftFoot
      {
        OFFSET 40.6238 0 0
        CHANNELS 3 Zrotation Xrotation Yrotation
        JOINT LeftToeBase
        {
          OFFSET 12.7242 0 0
          CHANNELS 3 Zrotation Xrotation Yrotation
          End Site
          {
            OFFSET 0 0 0
          }
        }
      }
    }
  }
  JOINT RightUpLeg
  {
    OFFSET -8.2249 1.95398 -2.59336
    CHANNELS 3 Zrotation Xrotation Yrotation
    JOINT RightLeg
    {
      OFFSET 43.5653 0 0
      CHANNELS 3 Zrotation Xrotation Yrotation
      JOINT RightFoot
      {
        OFFSET 40.6238 0 0
        CHANNELS 3 Zrotation Xrotation Yrotation
        JOINT RightToeBase
        {
          OFFSET 12.7242 0 0
          CHANNELS 3 Zrotation Xrotation Yrotation
          End Site
          {
            OFFSET 0 0 0
          }
        }
      }
    }
  }
  JOINT Spine
  {
    OFFSET 0.165834 0.87714 6.61349
    CHANNELS 3 Zrotation Xrotation Yrotation
    JOINT Spine1
    {
      OFFSET 7.38962 1.71661e-005 0
      CHANNELS 3 Zrotation Xrotation Yrotation
      JOINT Spine2
      {
        OFFSET 11.9445 1.14441e-005 0
        CHANNELS 3 Zrotation Xrotation Yrotation
        JOINT Spine3
        {
          OFFSET 14.7254 4.19617e-005 0
          CHANNELS 3 Zrotation Xrotation Yrotation
          JOINT Spine4
          {
            OFFSET 10.9679 0 0
            CHANNELS 3 Zrotation Xrotation Yrotation
            JOINT RightShoulder
            {
              OFFSET 2.46616 -1.6653 3.69651
              CHANNELS 3 Zrotation Xrotation Yrotation
              JOINT RightArm
              {
                OFFSET 13.0012 0 0
                CHANNELS 3 Zrotation Xrotation Yrotation
                JOINT RightForeArm
                {
                  OFFSET 28.7848 1.52588e-005 0
                  CHANNELS 3 Zrotation Xrotation Yrotation
                  JOINT RightHand
                  {
                    OFFSET 26.5688 1.52588e-005 0
                    CHANNELS 3 Zrotation Xrotation Yrotation
                    End Site
                    {
                      OFFSET 0 0 0
                    }
                  }
                }
              }
            }
            JOINT LeftShoulder
            {
              OFFSET 2.38034 -1.29275 -3.75231
              CHANNELS 3 Zrotation Xrotation Yrotation
              JOINT LeftArm
              {
                OFFSET 16.3182 6.10352e-005 0
                CHANNELS 3 Zrotation Xrotation Yrotation
                JOINT LeftForeArm
                {
                  OFFSET 27.0901 0 0
                  CHANNELS 3 Zrotation Xrotation Yrotation
                  JOINT LeftHand
                  {
                    OFFSET 24.5451 1.52588e-005 0
                    CHANNELS 3 Zrotation Xrotation Yrotation
                    End Site
                    {
                      OFFSET 0 0 0
                    }
                  }
                }
              }
            }
            JOINT Neck
            {
              OFFSET 5.0226 -0.0266342 0
              CHANNELS 3 Zrotation Xrotation Yrotation
              JOINT Head
              {
                OFFSET 6.69363 2.86102e-005 0
                CHANNELS 3 Zrotation Xrotation Yrotation
                End Site
                {
                  OFFSET 0 0 0
                }
              }
            }
          }
        }
      }
    }
  }
}
MOTION
Frames:	15
Frame Time:	0.0333333
2.81237 97.5097 -12.0349 103.488 -89.9984 103.59 -171.453 2.897 90.9464 -9.4338 8.26597 2.29492 63.6391 1.01014 0.508478 28.7808 6.13914e-006 6.45851e-006 179.282 1.99617 88.873 -7.78617 -0.613997 -0.045901 62.8105 -1.23815 -0.627241 28.7808 1.46791e-005 3.03677e-005 0.00812956 6.32994 -90.1023 14.1935 0.0042923 1.81055e-006 2.52251 0.00536492 -4.42453e-006 -20.0126 -0.000874806 1.60609e-006 -6.2319e-006 -0.000865619 9.77678e-009 101.019 -18.7676 -84.9985 4.01261 43.2038 -27.4247 -2.02897 0.501732 -4.91862 -5.37983 -0.320012 -0.0162377 -79.2151 -21.6954 93.8048 6.67233 -38.0933 -16.8604 2.6246 39.2276 -6.70887 -0.84864 -0.0230618 0.572386 1.74814 -0.00102477 -0.00357055 -7.40554 0.000941345 0.00362964 
2.79469 97.4943 -12.0142 -103.3 -89.9735 -103.221 -171.436 2.94773 90.9426 -9.58255 8.29368 2.30513 63.6993 0.943564 0.468953 28.7808 6.13914e-006 6.45851e-006 179.296 2.5403 88.8703 -8.9185 -0.731754 -0.0459021 63.1327 -1.44373 -0.752732 28.7808 1.46791e-005 3.03677e-005 0.00580742 6.33034 -90.0734 14.1935 0.0042923 1.81055e-006 2.52251 0.00536492 -4.42453e-006 -20.0126 -0.000874806 1.60609e-006 -6.2319e-006 -0.000865619 9.77678e-009 101.039 -18.8015 -85.0079 4.00253 43.2353 -27.3735 -2.04595 0.501725 -4.92691 -5.37983 -0.320012 -0.0162377 -79.2196 -21.6519 93.7272 6.65685 -38.0526 -16.7811 2.57069 39.2868 -6.616 -0.749461 -0.0230624 0.39048 1.66106 -0.0162821 -0.0533308 -7.32114 0.0148564 0.055301 
2.78945 97.5017 -11.9912 -111.14 -89.9404 -111.051 -171.429 2.89927 90.9584 -9.54794 8.2384 2.29515 63.698 0.924987 0.459159 28.7808 6.13914e-006 6.45851e-006 179.293 2.23691 88.8782 -8.36068 -0.701801 -0.0457369 63.0111 -1.33535 -0.687699 28.7808 1.46791e-005 3.03677e-005 0.00651619 6.33022 -90.0831 14.1935 0.0042923 1.81055e-006 2.52251 0.00536492 -4.42453e-006 -20.0126 -0.000874806 1.60609e-006 -6.2319e-006 -0.000865619 9.77678e-009 101.02 -18.7948 -84.9984 3.97636 43.2335 -27.3296 -2.02739 0.501751 -4.89343 -5.37983 -0.320012 -0.0162377 -79.263 -21.6964 93.6843 6.70726 -38.0467 -16.7239 2.5881 39.2909 -6.65767 -0.802553 -0.0230623 0.433473 1.59803 -0.0115745 0.00876557 -7.25195 0.0134634 0.0122202 
2.78236 97.4913 -11.9641 -125.051 -89.8849 -124.953 -171.402 2.82893 90.9862 -9.54658 8.22852 2.29248 63.7989 0.916853 0.456867 28.7808 6.13914e-006 6.45851e-006 179.301 2.27361 88.893 -8.57025 -0.670842 -0.044308 63.1834 -1.29274 -0.664963 28.7808 1.46791e-005 3.03677e-005 0.00659441 6.33019 -90.0855 14.1935 0.0042923 1.81055e-006 2.52251 0.00536492 -4.42453e-006 -20.0126 -0.000874806 1.60609e-006 -6.2319e-006 -0.000865619 9.77678e-009 100.996 -18.7824 -85.0536 3.86244 43.2159 -27.1664 -1.97581 0.501749 -4.89545 -5.37983 -0.320012 -0.0162377 -79.2993 -21.7195 93.6132 6.74332 -38.0727 -16.633 2.60128 39.2876 -6.60384 -0.763182 -0.0230628 0.183536 1.40939 0.00544997 0.103125 -7.09513 0.0102871 -0.0210315 
2.77402 97.4818 -11.9464 -87.7861 -89.8321 -87.7136 -171.442 2.94584 90.9397 -9.67541 8.12776 2.31037 63.7652 0.906848 0.447586 28.7808 6.13914e-006 6.45851e-006 179.303 2.66657 88.8714 -9.20256 -0.925448 -0.0596707 63.2637 -1.53566 -0.80789 28.7808 1.46791e-005 3.03677e-005 0.00435136 6.33052 -90.0556 14.1934 0.0042923 -3.19669e-005 2.52248 0.00536492 -3.80755e-005 -20.0127 -0.000874806 -3.28835e-005 -3.52963e-005 -0.000865619 -3.45889e-005 101.053 -18.7519 -85.0549 3.98264 43.2322 -27.2536 -2.08077 0.501741 -4.90661 -5.37983 -0.320012 -0.0162377 -79.2053 -21.7515 93.7025 6.73973 -38.0614 -16.6838 2.69258 39.6882 -6.61584 -0.986453 -0.0230629 0.104818 1.5248 0.0286626 0.295594 -7.17597 0.00167307 -0.184612 
2.77354 97.4826 -11.9103 -104.145 -89.7919 -104.064 -171.404 2.84832 90.9717 -9.65774 8.16583 2.29562 63.8445 0.963819 0.482631 28.7808 6.13914e-006 6.45851e-006 179.305 2.54214 88.8824 -9.12751 -0.833967 -0.0543691 63.3494 -1.47767 -0.774917 28.7808 1.46791e-005 3.03677e-005 0.00494397 6.33044 -90.0643 14.194 0.0042923 0.000673971 2.52309 0.00536492 0.000657047 -20.0121 -0.000874806 0.000689445 0.000586681 -0.000865619 0.000686181 101.038 -18.791 -85.1237 3.80638 43.2495 -27.1015 -2.03162 0.501731 -4.91957 -5.37983 -0.320012 -0.0162377 -79.2376 -21.7815 93.6097 6.85758 -38.0517 -16.531 2.50293 39.2033 -6.48794 -0.793966 -0.0230629 -0.0793696 1.32745 0.0390721 0.294471 -7.05822 -0.0137038 -0.109426 
2.76467 97.4766 -11.8831 -111.451 -89.7581 -111.361 -171.366 2.80177 91.0038 -9.68785 8.11482 2.26034 63.9609 0.950104 0.477279 28.7808 6.13914e-006 6.45851e-006 179.319 2.61354 88.9106 -9.39885 -0.684929 -0.0465594 63.5341 -1.60471 -0.849584 28.7808 1.46791e-005 3.03677e-005 0.00465311 6.33052 -90.0557 14.2101 0.0042923 0.0192259 2.53917 0.00536492 0.019011 -19.996 -0.000874806 0.0196201 0.0166622 -0.000865619 0.0196181 100.955 -18.9366 -85.1558 3.71075 43.2965 -27.0378 -2.02279 0.501742 -4.90498 -5.37983 -0.320012 -0.0162377 -79.321 -21.657 93.5578 6.86518 -38.0364 -16.4441 2.4853 39.096 -6.56932 -0.722058 -0.0232892 0.320122 1.04978 0.0130995 0.190377 -6.82707 -0.01013 -0.0732588 
2.76099 97.4647 -11.8575 -100.351 -89.7491 -100.243 -171.389 2.78439 91.0061 -9.5893 8.08792 2.26962 63.942 1.07919 0.552164 28.7808 6.13914e-006 6.45851e-006 179.305 2.37966 88.9078 -8.84556 -0.919578 -0.0586641 63.3374 -1.38333 -0.718467 28.7808 1.46791e-005 3.03677e-005 0.00566647 6.33022 -90.0735 14.2135 0.00451964 0.0244871 2.54252 0.00559787 0.024393 -19.9926 -0.000874806 0.0248541 0.0200108 -0.000865619 0.0248544 100.994 -18.9689 -85.0533 3.81668 43.2983 -27.1667 -2.05929 0.501733 -4.91715 -5.37983 -0.320012 -0.0162377 -79.2625 -21.5816 93.686 6.77929 -37.9998 -16.5693 2.53664 39.3982 -6.57304 -0.79449 -0.0271588 0.228962 1.28504 0.00643042 0.127292 -7.12349 -0.00896249 -0.0566969 
2.75531 97.4843 -11.8344 -112.919 -89.7405 -112.8 -171.366 2.69505 91.0359 -9.55405 8.17001 2.29505 63.9286 0.906825 0.454496 28.7808 6.13914e-006 6.45851e-006 179.297 1.96264 88.9047 -8.17293 -0.941993 -0.0587123 63.2348 -1.1417 -0.577196 28.7808 1.46791e-005 3.03677e-005 0.00718645 6.32837 -90.08 14.2172 0.00704061 0.0225184 2.54626 0.00818098 0.0270341 -19.9889 -0.00153533 0.0270891 0.0237367 -0.00152757 0.0270924 100.969 -19.1074 -85.1148 3.5762 43.404 -27.0101 -2.04828 0.501744 -4.90172 -5.37983 -0.320012 -0.0162377 -79.3476 -21.571 93.4872 6.86664 -38.1043 -16.3755 2.67063 39.4624 -6.55398 -0.819697 -0.0331387 -0.137773 1.00288 -0.0164195 0.044294 -6.81342 -0.0219043 0.0123437 
2.74944 97.505 -11.8128 -116.832 -89.7549 -116.702 -171.36 2.66879 91.055 -9.53979 8.2779 2.3327 63.8841 0.872644 0.434413 28.7808 6.13914e-006 6.45851e-006 179.311 1.57966 88.9341 -7.43414 -0.639388 -0.0408658 62.9616 -1.0796 -0.537359 28.7808 1.46791e-005 3.03677e-005 0.0011296 6.32819 -90.0901 14.2176 -0.00815037 0.0179004 2.54667 -0.0073464 0.0286667 -19.9885 -0.0131594 0.0146681 0.0241512 -0.0131713 0.0146592 101.007 -19.1822 -85.0107 3.58696 43.4353 -27.1905 -2.04649 0.501735 -4.91367 -5.37983 -0.320012 -0.0162377 -79.3372 -21.6466 93.5209 7.00478 -38.0956 -16.2468 2.56033 39.2148 -6.60595 -0.46292 -0.0173314 0.0211754 1.0616 -0.00534115 0.136657 -6.81896 -0.0205779 -0.0488195 
2.74515 97.5199 -11.796 -107.234 -89.8015 -107.077 -171.363 2.67193 91.0769 -9.44021 8.32168 2.33574 63.8065 0.87046 0.433448 28.7808 6.13914e-006 6.45851e-006 179.308 1.07792 88.9602 -6.32052 -0.646999 -0.040602 62.4596 -1.09504 -0.536898 28.7808 1.46791e-005 3.03677e-005 -0.0113821 6.31785 -90.1149 14.2383 -0.0378209 0.0155537 2.56739 -0.0370993 0.0294295 -19.9678 -0.040798 0.00358406 0.0448818 -0.0407845 0.00358824 101.044 -19.2974 -84.9041 3.60621 43.3887 -27.4023 -1.99297 0.501701 -4.9599 -5.37983 -0.320012 -0.0162377 -79.3053 -21.6874 93.6021 7.11557 -38.1183 -16.0987 2.57183 39.224 -6.60681 -0.578788 -0.0205725 0.0952258 1.16648 -0.01777 0.206008 -6.95062 -0.0418592 -0.111361 
2.74206 97.519 -11.7739 -114.543 -89.8443 -114.412 -171.362 2.6314 91.066 -9.405 8.35171 2.33048 63.8429 0.712963 0.344876 28.7808 6.13914e-006 6.45851e-006 179.291 0.654287 88.9301 -5.53427 -0.448704 -0.0289213 62.4137 -0.804866 -0.366478 28.7808 1.46791e-005 3.03677e-005 -0.0258859 6.3148 -90.117 14.2445 -0.0665205 0.0180213 2.57361 -0.0655237 0.0294613 -19.9616 -0.0697958 0.000142833 0.0510721 -0.0697884 0.000139668 101.038 -19.412 -84.913 3.49805 43.4333 -27.415 -1.96218 0.501704 -4.95488 -5.37983 -0.320012 -0.0162377 -79.2933 -21.7695 93.6342 7.30373 -38.1604 -15.9254 2.42938 39.1257 -6.50156 -0.348355 -0.00967382 0.226979 1.24028 -0.0602307 0.238496 -6.95284 -0.0858417 -0.163227 
2.73382 97.5151 -11.7533 -100.522 -89.8853 -100.36 -171.37 2.64669 91.0735 -9.37586 8.5493 2.37866 63.8463 1.06053 0.543461 28.7808 6.13914e-006 6.45851e-006 179.309 0.739055 88.9706 -5.64107 -0.447056 -0.0291775 62.3198 -0.972159 -0.462105 28.7808 1.46791e-005 3.03677e-005 -0.0299133 6.3103 -90.1281 14.2533 -0.0772802 0.0222193 2.58231 -0.0764701 0.028901 -19.9529 -0.0787032 -0.00737411 0.0597717 -0.0787015 -0.00738426 101.061 -19.5226 -84.849 3.39132 43.467 -27.3727 -1.95206 0.501713 -4.94353 -5.37983 -0.320012 -0.0162377 -79.3036 -21.7461 93.6091 7.38821 -38.182 -15.7385 2.47814 37.9188 -6.84505 -1.2692 -0.0352202 1.38483 1.49489 -0.144858 0.185296 -7.12927 -0.160931 -0.177417 
2.73571 97.5067 -11.7339 -126.651 -89.8666 -126.555 -171.346 2.65566 91.052 -9.54591 8.36243 2.33554 63.9359 0.446697 0.19307 28.7808 6.13914e-006 6.45851e-006 179.289 0.466876 88.8855 -5.29207 -0.241164 -0.0163143 62.7544 -0.489179 -0.192284 28.7808 1.46791e-005 3.03677e-005 -0.0360522 6.30864 -90.0876 14.2457 -0.0818885 0.0243822 2.57473 -0.0807275 0.0278895 -19.9604 -0.0854792 -0.00122804 0.052202 -0.085471 -0.00122018 101.035 -19.6836 -84.9009 3.14058 43.5704 -27.141 -1.93915 0.501704 -4.95491 -5.37983 -0.320012 -0.0162377 -79.3305 -21.8528 93.5589 7.6441 -38.2219 -15.5458 2.16708 38.5596 -6.40499 0.138089 0.0161291 0.484286 1.51977 -0.180116 0.106638 -6.97692 -0.183625 -0.215419 
2.74378 97.5184 -11.709 -104.977 -89.9004 -104.838 -171.376 2.65523 91.0595 -9.4515 8.48287 2.37929 63.8643 0.788275 0.387817 28.7808 6.13914e-006 6.45851e-006 179.297 0.662681 88.9399 -5.56048 -0.435697 -0.0282537 62.3837 -0.921059 -0.434019 28.7808 1.46791e-005 3.03677e-005 -0.0279582 6.30709 -90.115 14.2573 -0.0703405 0.0214142 2.58641 -0.069321 0.0244878 -19.9488 -0.0735407 -0.000720439 0.0638892 -0.0735351 -0.000718479 101.083 -19.8736 -84.7717 3.06426 43.6832 -27.0905 -2.01844 0.501684 -4.98176 -5.37983 -0.320012 -0.0162377 -79.3437 -21.8248 93.5288 7.61231 -38.2591 -15.5791 2.58036 38.9287 -6.67305 -1.05223 -0.0327298 0.652437 1.64631 -0.204033 0.00998195 -7.04664 -0.19298 -0.224059 
